<!-- Generator: Adobe Illustrator 18.1.1, SVG Export Plug-In  -->
<svg version="1.1"
	 xmlns="http://www.w3.org/2000/svg" xmlns:xlink="http://www.w3.org/1999/xlink" xmlns:a="http://ns.adobe.com/AdobeSVGViewerExtensions/3.0/"
	 x="0px" y="0px" width="117.3px" height="20.5px" viewBox="0 0 117.3 20.5" enable-background="new 0 0 117.3 20.5"
	 xml:space="preserve">
<defs>
</defs>
<g>
	<path fill="#FFFFFF" d="M6.6,20.2c-0.2-0.5-0.3-0.8-0.3-2.5v-3.1c0-1.9-0.6-2.5-2.1-2.5H3.1v8.1H0v-20h4.7c3.3,0,4.7,1.5,4.7,4.6
		v1.6c0,2.1-0.7,3.4-2.1,4.1c1.6,0.7,2.1,2.2,2.1,4.3v3.1c0,1,0,1.7,0.3,2.4H6.6z M3.1,3.1v6.1h1.2c1.2,0,1.9-0.5,1.9-2.1v-2
		c0-1.4-0.5-2.1-1.6-2.1H3.1z"/>
	<path fill="#FFFFFF" d="M11.2,5c0-3.2,1.7-5,4.8-5c3.1,0,4.8,1.8,4.8,5v10.4c0,3.2-1.7,5-4.8,5c-3.1,0-4.8-1.8-4.8-5V5z M14.4,15.6
		c0,1.4,0.6,2,1.6,2c1,0,1.6-0.5,1.6-2V4.8c0-1.4-0.6-2-1.6-2c-1,0-1.6,0.5-1.6,2V15.6z"/>
	<path fill="#FFFFFF" d="M22.8,0.2h3.1v17.1h5.2v2.9h-8.3V0.2z"/>
	<path fill="#FFFFFF" d="M32.5,0.2h3.1v17.1h5.2v2.9h-8.3V0.2z"/>
	<path fill="#FFFFFF" d="M45.3,8.7h4.3v2.9h-4.3v5.9h5.4v2.9h-8.6v-20h8.6v2.9h-5.4V8.7z"/>
	<path fill="#FFFFFF" d="M59.2,20.2c-0.2-0.5-0.3-0.8-0.3-2.5v-3.1c0-1.9-0.6-2.5-2.1-2.5h-1.1v8.1h-3.1v-20h4.7
		c3.3,0,4.7,1.5,4.7,4.6v1.6c0,2.1-0.7,3.4-2.1,4.1c1.6,0.7,2.1,2.2,2.1,4.3v3.1c0,1,0,1.7,0.3,2.4H59.2z M55.8,3.1v6.1H57
		c1.2,0,1.9-0.5,1.9-2.1v-2c0-1.4-0.5-2.1-1.6-2.1H55.8z"/>
	<path fill="#FFFFFF" d="M73.6,4.8v0.7c0,2.1-0.6,3.4-2,4c1.7,0.7,2.3,2.2,2.3,4.3v1.6c0,3.1-1.6,4.7-4.8,4.7h-4.9v-20h4.7
		C72.2,0.2,73.6,1.7,73.6,4.8z M67.3,3.1v5.3h1.2c1.2,0,1.9-0.5,1.9-2.1V5.1c0-1.4-0.5-2.1-1.6-2.1H67.3z M67.3,11.2v6.1h1.8
		c1.1,0,1.6-0.5,1.6-2v-1.7c0-1.9-0.6-2.4-2-2.4H67.3z"/>
	<path fill="#FFFFFF" d="M75.8,0.2h3.1v17.1h5.2v2.9h-8.3V0.2z"/>
	<path fill="#FFFFFF" d="M95.6,20.2h-3.2l-0.5-3.6H88l-0.5,3.6h-2.9l3.2-20h4.6L95.6,20.2z M88.4,13.9h3L90,3.8L88.4,13.9z"/>
	<path fill="#FFFFFF" d="M97.1,0.2h5c3.1,0,4.7,1.7,4.7,4.9v10.1c0,3.2-1.5,4.9-4.7,4.9h-5V0.2z M100.2,3.1v14.3h1.8
		c1,0,1.6-0.5,1.6-1.9V5c0-1.4-0.6-1.9-1.6-1.9H100.2z"/>
	<path fill="#FFFFFF" d="M111.9,8.7h4.3v2.9h-4.3v5.9h5.4v2.9h-8.6v-20h8.6v2.9h-5.4V8.7z"/>
</g>
</svg>
