<!-- Generator: Adobe Illustrator 18.1.1, SVG Export Plug-In  -->
<svg version="1.1"
	 xmlns="http://www.w3.org/2000/svg" xmlns:xlink="http://www.w3.org/1999/xlink" xmlns:a="http://ns.adobe.com/AdobeSVGViewerExtensions/3.0/"
	 x="0px" y="0px" width="36px" height="29px" viewBox="0 0 36 29" enable-background="new 0 0 36 29" xml:space="preserve">
<defs>
</defs>
<g>
	<g>
		<path fill="none" stroke="#FFFFFF" stroke-width="2" stroke-linecap="round" stroke-linejoin="round" stroke-miterlimit="10" d="
			M20.3,9.2C21.7,8.4,23.3,8,25,8c5.5,0,10,4.5,10,10c0,5.5-4.5,10-10,10c-5.2,0-9.4-3.9-9.9-9"/>
		<path fill="none" stroke="#FFFFFF" stroke-width="2" stroke-linecap="round" stroke-linejoin="round" stroke-miterlimit="10" d="
			M23.1,14.5c0.6-0.3,1.2-0.5,1.9-0.5c2.2,0,4,1.8,4,4s-1.8,4-4,4c-1.9,0-3.4-1.3-3.9-3"/>
		
			<polyline fill="none" stroke="#FFFFFF" stroke-width="2" stroke-linecap="round" stroke-linejoin="round" stroke-miterlimit="10" points="
			25,18 18,5 1,5 6,15 18,15 		"/>
		
			<polyline fill="none" stroke="#FFFFFF" stroke-width="2" stroke-linecap="round" stroke-linejoin="round" stroke-miterlimit="10" points="
			6,1 21,1 24.8,8 		"/>
		<circle fill="#FFFFFF" cx="8" cy="10" r="1"/>
		<circle fill="#FFFFFF" cx="12" cy="10" r="1"/>
		<circle fill="#FFFFFF" cx="16" cy="10" r="1"/>
	</g>
</g>
</svg>
